<?xml version="1.0" standalone="no"?>
<!DOCTYPE svg PUBLIC "-//W3C//DTD SVG 20010904//EN"
 "http://www.w3.org/TR/2001/REC-SVG-20010904/DTD/svg10.dtd">
<svg version="1.0" xmlns="http://www.w3.org/2000/svg"
 width="320.000000pt" height="320.000000pt" viewBox="0 0 320.000000 320.000000"
 preserveAspectRatio="xMidYMid meet">
<metadata>
Created by potrace 1.14, written by Peter Selinger 2001-2017
</metadata>
<g transform="translate(0.000000,320.000000) scale(0.100000,-0.100000)"
fill="#f4ffff" stroke="none">
<path d="M1435 3193 c-77 -10 -238 -45 -310 -67 -305 -93 -594 -292 -781 -538
-27 -35 -51 -65 -54 -68 -11 -9 -72 -113 -117 -198 -53 -101 -114 -281 -144
-422 -18 -84 -22 -140 -23 -280 0 -96 2 -195 6 -220 37 -235 93 -400 201 -595
93 -166 265 -363 417 -476 187 -139 359 -222 574 -278 44 -12 100 -24 125 -27
25 -3 68 -10 94 -14 49 -7 339 -5 392 4 297 47 532 146 756 317 194 148 360
350 465 567 48 99 119 302 128 367 4 22 12 67 18 100 14 67 17 335 6 435 -10
84 -49 245 -84 340 -54 152 -164 356 -226 422 -7 7 -25 29 -40 49 -35 47 -172
185 -222 224 -21 17 -44 35 -50 40 -30 28 -181 121 -261 160 -138 67 -300 120
-425 140 -25 4 -54 9 -65 12 -26 6 -341 11 -380 6z m-929 -2275 c5 -7 3 -8 -6
-3 -10 6 -12 4 -7 -7 4 -12 0 -15 -19 -13 -13 1 -24 -2 -24 -8 0 -5 -8 -3 -17
4 -15 12 -16 12 -9 -6 6 -16 5 -17 -5 -8 -10 10 -10 15 0 27 12 15 54 19 45 4
-3 -4 -1 -8 4 -8 6 0 12 7 16 15 7 18 12 19 22 3z"/>
</g>
</svg>
